<?xml version="1.0" encoding="utf-8"?>
<!-- Generator: Adobe Illustrator 27.5.0, SVG Export Plug-In . SVG Version: 6.00 Build 0)  -->
<svg version="1.1" id="레이어_1" xmlns="http://www.w3.org/2000/svg" xmlns:xlink="http://www.w3.org/1999/xlink" x="0px"
	 y="0px" viewBox="0 0 366.54 80.42" style="enable-background:new 0 0 366.54 80.42;" xml:space="preserve">
<style type="text/css">
	.st0{fill:#3E3A39;}
</style>
<g>
	<g>
		<path class="st0" d="M40.13,80.42c-22.17,0-40.21-18.04-40.21-40.21S17.96,0,40.13,0c22.17,0,40.21,18.04,40.21,40.21
			S62.31,80.42,40.13,80.42z M40.13,3.95c-20,0-36.26,16.27-36.26,36.26c0,20,16.27,36.26,36.26,36.26c20,0,36.26-16.27,36.26-36.26
			C76.4,20.21,60.13,3.95,40.13,3.95z"/>
		<path class="st0" d="M66.84,42.05c0.36,0.61,0.57,1.34,0.57,2.13c0,2.1-1.5,3.81-3.34,3.81H50.91v4.5h13.16
			c4.02,0,7.29-3.73,7.29-8.32c0-1.68-0.44-3.25-1.2-4.56C69.28,40.75,68.14,41.6,66.84,42.05z"/>
		<path class="st0" d="M64.07,23.74H42.14v20.47L25.71,22.57L2.45,52.5h27.3h7.15L33.34,48H11.23L25.68,29.4l17.54,23.1h2.88V28.24
			h17.98c1.84,0,3.34,1.71,3.34,3.81c0,2.1-1.5,3.81-3.34,3.81H50.91v4.5h13.16c4.02,0,7.29-3.73,7.29-8.32
			C71.36,27.47,68.09,23.74,64.07,23.74z"/>
		<polygon class="st0" points="25.59,37.08 20.74,43.55 30.52,43.55 		"/>
	</g>
	<g>
		<path class="st0" d="M113.88,15.9h3.26v28.53h-3.26v-15.3h-2.58c-0.16,2.89-0.86,5.07-2.09,6.54c-1.24,1.47-2.85,2.2-4.84,2.2
			c-2.13,0-3.82-0.84-5.07-2.52c-1.25-1.68-1.87-4.17-1.87-7.46c0-3.32,0.62-5.81,1.87-7.48c1.25-1.67,2.94-2.5,5.07-2.5
			c1.97,0,3.56,0.69,4.78,2.08c1.21,1.39,1.92,3.47,2.12,6.25h2.62V15.9z M107.83,25.74c0-1.66-0.32-2.92-0.95-3.8
			c-0.63-0.87-1.47-1.31-2.52-1.31c-1.04,0-1.88,0.44-2.5,1.31c-0.62,0.88-0.93,2.14-0.93,3.8v4.29c0,1.66,0.31,2.93,0.93,3.8
			c0.62,0.88,1.46,1.31,2.5,1.31c1.06,0,1.91-0.44,2.53-1.31c0.62-0.87,0.94-2.14,0.94-3.8V25.74z M123.74,15.42v29.82h-3.3V15.42
			H123.74z"/>
		<path class="st0" d="M128.4,27.51c0-3.38,0.74-5.93,2.23-7.65c1.48-1.71,3.46-2.57,5.93-2.57c2.45,0,4.41,0.86,5.9,2.57
			c1.48,1.71,2.23,4.26,2.23,7.65c0,3.36-0.74,5.9-2.23,7.63c-1.48,1.73-3.45,2.59-5.9,2.59c-2.45,0-4.42-0.86-5.92-2.59
			C129.15,33.41,128.4,30.87,128.4,27.51z M141.02,29.18v-3.34c0-1.84-0.41-3.24-1.22-4.21c-0.82-0.97-1.89-1.45-3.23-1.45
			c-1.36,0-2.45,0.48-3.26,1.45c-0.82,0.97-1.22,2.37-1.22,4.21v3.34c0,1.82,0.41,3.22,1.22,4.19c0.82,0.98,1.9,1.46,3.26,1.46
			c1.34,0,2.41-0.49,3.23-1.46C140.61,32.4,141.02,31,141.02,29.18z M149.82,15.42h3.47v29.82h-3.47V15.42z"/>
		<path class="st0" d="M159.58,17.5h3.37v7.07h7.72v-7.11h3.37v19.89h-14.45V17.5z M170.66,34.46v-7h-7.72v7H170.66z M180.15,15.42
			h3.47v29.82h-3.47V15.42z"/>
		<path class="st0" d="M197.49,25.76c-0.14,0-0.27,0.07-0.41,0.2c-0.61,1-1.41,2.02-2.38,3.08c-0.97,1.05-2.23,2.29-3.77,3.72
			l-2.55-2.28c1.84-1.61,3.28-3.04,4.32-4.28c1.04-1.25,1.8-2.48,2.28-3.69c0.48-1.21,0.71-2.56,0.71-4.03v-2.04h3.47v2.24
			c0,2.13-0.43,4.09-1.29,5.88l0.17,0.1l0.75-0.65c0.36-0.25,0.69-0.37,0.99-0.37c0.32,0,0.6,0.12,0.85,0.37l5.98,5.54l-2.48,2.41
			l-6.19-6.02C197.8,25.83,197.65,25.76,197.49,25.76z M214.15,40.21c0,1.27-0.37,2.41-1.12,3.42c-0.75,1.01-1.85,1.8-3.3,2.38
			c-1.45,0.58-3.21,0.87-5.27,0.87s-3.83-0.29-5.3-0.87c-1.47-0.58-2.58-1.37-3.33-2.38c-0.75-1.01-1.12-2.15-1.12-3.42
			c0-1.27,0.37-2.41,1.12-3.42c0.75-1.01,1.86-1.8,3.33-2.38c1.47-0.58,3.24-0.87,5.3-0.87s3.82,0.29,5.27,0.87
			c1.45,0.58,2.55,1.37,3.3,2.38C213.78,37.8,214.15,38.94,214.15,40.21z M210.51,39.94c0-1.02-0.5-1.88-1.51-2.57
			c-1.01-0.69-2.52-1.04-4.54-1.04c-2.04,0-3.56,0.35-4.57,1.04c-1.01,0.69-1.51,1.55-1.51,2.57v0.58c0,1,0.5,1.84,1.51,2.53
			c1.01,0.69,2.53,1.04,4.57,1.04c2.02,0,3.53-0.35,4.54-1.04c1.01-0.69,1.51-1.54,1.51-2.53V39.94z M210.61,24.47h-6.02v-2.89h6.02
			v-6.15h3.43v17.71h-3.43V24.47z"/>
		<path class="st0" d="M227.51,33.78c-1.45,0-2.71-0.22-3.79-0.66c-1.08-0.44-1.9-1.04-2.48-1.8c-0.58-0.76-0.87-1.62-0.87-2.57
			c0-1.9,0.91-3.25,2.72-4.05v-0.24h-4.25v-2.75h16.97v2.75h-3.88v0.24c1.79,0.77,2.69,2.12,2.69,4.05c0,0.95-0.28,1.81-0.85,2.57
			c-0.57,0.76-1.39,1.36-2.46,1.8C230.23,33.56,228.96,33.78,227.51,33.78z M232.3,18.89h-9.18v-2.82h9.18V18.89z M227.21,30.96
			h0.61c1.09,0,1.97-0.27,2.63-0.82c0.67-0.54,1-1.29,1-2.24c0-0.95-0.34-1.7-1-2.24c-0.67-0.54-1.55-0.82-2.63-0.82h-0.61
			c-1.09,0-1.97,0.27-2.65,0.82c-0.68,0.54-1.02,1.29-1.02,2.24c0,0.95,0.34,1.7,1.02,2.24C225.23,30.69,226.12,30.96,227.21,30.96z
			 M244.48,41.06c0,1.79-0.84,3.22-2.53,4.3c-1.69,1.08-4.1,1.62-7.23,1.62c-3.13,0-5.54-0.54-7.24-1.62
			c-1.7-1.08-2.55-2.51-2.55-4.3c0-1.16,0.37-2.18,1.12-3.06c0.75-0.88,1.86-1.58,3.33-2.07c1.47-0.5,3.25-0.75,5.34-0.75
			c2.09,0,3.86,0.25,5.32,0.75c1.46,0.5,2.57,1.19,3.32,2.07C244.1,38.88,244.48,39.9,244.48,41.06z M240.84,40.89
			c0-0.86-0.5-1.58-1.51-2.14c-1.01-0.57-2.54-0.85-4.61-0.85c-2.04,0-3.58,0.28-4.61,0.85c-1.03,0.57-1.55,1.28-1.55,2.14v0.41
			c0,0.84,0.51,1.54,1.55,2.11c1.03,0.57,2.57,0.85,4.61,0.85c2.06,0,3.6-0.28,4.61-0.85c1.01-0.57,1.51-1.27,1.51-2.11V40.89z
			 M240.94,30.52h-4.01v-2.75h4.01v-3.2h-4.01v-2.79h4.01v-6.36h3.43V34.6h-3.43V30.52z"/>
		<path class="st0" d="M269.09,35.65l0.31,2.75c-2.52,0.39-5.57,0.68-9.15,0.88c-3.58,0.2-7.24,0.31-10.98,0.31l-0.31-2.89
			c3.06,0,5.77-0.04,8.13-0.14v-5.41c-1.97-0.29-3.56-1.07-4.76-2.33c-1.2-1.26-1.8-2.83-1.8-4.72c0-1.43,0.36-2.69,1.07-3.77
			c0.71-1.08,1.69-1.91,2.94-2.5c1.25-0.59,2.66-0.89,4.25-0.89c1.59,0,3,0.3,4.25,0.89c1.25,0.59,2.23,1.43,2.94,2.5
			c0.71,1.08,1.07,2.33,1.07,3.77c0,1.89-0.61,3.46-1.84,4.74c-1.22,1.27-2.83,2.06-4.83,2.35v5.24
			C263.77,36.25,266.67,35.99,269.09,35.65z M258.79,28.55c1.38,0,2.51-0.37,3.38-1.11c0.87-0.74,1.31-1.72,1.31-2.95v-0.75
			c0-1.23-0.44-2.21-1.31-2.93c-0.87-0.73-2-1.09-3.38-1.09c-1.38,0-2.51,0.36-3.38,1.09c-0.87,0.73-1.31,1.71-1.31,2.93v0.75
			c0,1.23,0.44,2.21,1.31,2.95C256.28,28.18,257.41,28.55,258.79,28.55z M274.64,15.42v29.82h-3.43V15.42H274.64z"/>
		<path class="st0" d="M298.13,35.08l0.31,2.72c-2.4,0.39-5.34,0.69-8.82,0.9c-3.48,0.22-7.04,0.32-10.69,0.32l-0.31-2.89
			c2.18,0,4.32-0.03,6.43-0.1v-8.91h3.33v8.81C292.11,35.74,295.36,35.46,298.13,35.08z M293.03,21h-12.44v-2.89h15.81v2.45
			c0,3.79-0.41,7.5-1.22,11.11l-3.26-0.51C292.63,28.11,293.01,24.72,293.03,21z M308.06,30.25h-4.39v14.99h-3.4V15.42h3.4v11.93
			h4.39V30.25z"/>
		<path class="st0" d="M309.69,36.16c3.83,0,7.54-0.09,11.12-0.27c3.58-0.18,6.57-0.44,8.98-0.78l0.34,2.72
			c-2.52,0.41-5.56,0.71-9.13,0.92c-3.57,0.2-7.25,0.31-11.03,0.31L309.69,36.16z M310.98,24.42c0-1.43,0.36-2.7,1.07-3.8
			c0.71-1.1,1.69-1.95,2.94-2.56c1.25-0.6,2.66-0.9,4.25-0.9c1.59,0,3,0.3,4.25,0.9c1.25,0.6,2.23,1.45,2.94,2.56
			c0.71,1.1,1.07,2.37,1.07,3.8c0,1.43-0.36,2.69-1.07,3.78c-0.71,1.09-1.69,1.94-2.94,2.54c-1.25,0.6-2.66,0.9-4.25,0.9
			c-1.59,0-3-0.3-4.25-0.9c-1.25-0.6-2.23-1.45-2.94-2.54C311.34,27.11,310.98,25.85,310.98,24.42z M323.9,24.79v-0.79
			c0-1.23-0.43-2.22-1.29-2.97c-0.86-0.75-1.98-1.13-3.37-1.13c-1.38,0-2.5,0.38-3.37,1.13c-0.86,0.75-1.29,1.74-1.29,2.97v0.79
			c0,1.23,0.43,2.22,1.29,2.97c0.86,0.75,1.98,1.13,3.37,1.13c1.38,0,2.5-0.38,3.37-1.13C323.47,27.01,323.9,26.02,323.9,24.79z
			 M331.86,15.42h3.43v29.82h-3.43V15.42z"/>
		<path class="st0" d="M347.94,31.91c-2.24,0.09-4.79,0.14-7.65,0.14l-0.27-2.75c3.83,0,7.53-0.09,11.1-0.27
			c3.57-0.18,6.56-0.44,8.96-0.78l0.31,2.58c-2.47,0.39-5.51,0.69-9.11,0.92v5.17h-3.33V31.91z M341.96,21.58
			c0-1.72,0.72-3.09,2.16-4.1c1.44-1.01,3.33-1.51,5.66-1.51c2.31,0,4.19,0.5,5.63,1.51c1.44,1.01,2.16,2.38,2.16,4.1
			c0,1.75-0.72,3.13-2.16,4.15c-1.44,1.02-3.31,1.53-5.63,1.53c-2.34,0-4.22-0.51-5.66-1.53C342.67,24.71,341.96,23.32,341.96,21.58
			z M345.39,21.82c0,0.88,0.4,1.59,1.19,2.11c0.79,0.52,1.86,0.78,3.2,0.78c1.31,0,2.36-0.26,3.15-0.78
			c0.78-0.52,1.17-1.22,1.17-2.11v-0.41c0-0.88-0.39-1.59-1.17-2.11c-0.78-0.52-1.83-0.78-3.15-0.78c-1.34,0-2.4,0.26-3.2,0.78
			c-0.79,0.52-1.19,1.22-1.19,2.11V21.82z M366.54,43.07v2.79h-18.09c-0.73,0-1.27-0.19-1.65-0.58c-0.37-0.39-0.56-0.94-0.56-1.67
			v-5.64h3.43v5.1H366.54z M362.49,33.31V15.42h3.43v24.04h-3.43v-3.64h-6.94v-2.52H362.49z"/>
	</g>
	<g>
		<path class="st0" d="M162.66,68.55l-0.95-2.83h-3.91l-0.92,2.83h-1.72l3.57-10.47h2.13l3.57,10.47H162.66z M159.8,59.64h-0.08
			l-1.51,4.62h3.09L159.8,59.64z"/>
		<path class="st0" d="M166.05,58.08h4.63c0.87,0,1.55,0.25,2.05,0.74c0.5,0.49,0.74,1.15,0.74,1.96c0,0.39-0.05,0.72-0.17,1
			c-0.11,0.27-0.25,0.5-0.42,0.67c-0.17,0.17-0.37,0.3-0.58,0.39c-0.22,0.08-0.43,0.14-0.64,0.16v0.09c0.21,0.01,0.44,0.06,0.7,0.15
			c0.25,0.09,0.49,0.23,0.71,0.43c0.22,0.2,0.41,0.45,0.56,0.75c0.15,0.31,0.22,0.68,0.22,1.12c0,0.42-0.07,0.82-0.2,1.19
			c-0.13,0.37-0.32,0.69-0.56,0.96c-0.24,0.27-0.53,0.48-0.86,0.64c-0.33,0.16-0.69,0.23-1.08,0.23h-5.1V58.08z M167.75,62.51h2.62
			c0.42,0,0.74-0.11,0.97-0.32c0.23-0.21,0.34-0.52,0.34-0.92v-0.48c0-0.4-0.12-0.71-0.34-0.92c-0.23-0.21-0.55-0.32-0.97-0.32
			h-2.62V62.51z M167.75,67.1h2.91c0.44,0,0.79-0.12,1.04-0.34c0.25-0.23,0.38-0.56,0.38-0.99v-0.51c0-0.43-0.12-0.76-0.38-0.99
			c-0.25-0.23-0.59-0.34-1.04-0.34h-2.91V67.1z"/>
		<path class="st0" d="M179.48,68.55V58.08h4.5c0.97,0,1.72,0.29,2.25,0.86c0.53,0.57,0.79,1.33,0.79,2.29
			c0,0.96-0.26,1.72-0.79,2.3c-0.53,0.57-1.28,0.86-2.25,0.86h-2.8v4.17H179.48z M181.17,62.88h2.7c0.43,0,0.77-0.11,1.01-0.33
			c0.24-0.22,0.36-0.54,0.36-0.96v-0.71c0-0.42-0.12-0.74-0.36-0.96c-0.24-0.22-0.58-0.33-1.01-0.33h-2.7V62.88z"/>
		<path class="st0" d="M188.88,68.55V58.08h1.7v8.97h4.26v1.5H188.88z"/>
		<path class="st0" d="M203.39,68.55l-0.95-2.83h-3.91l-0.92,2.83h-1.72l3.57-10.47h2.13l3.57,10.47H203.39z M200.52,59.64h-0.08
			l-1.51,4.62h3.09L200.52,59.64z"/>
		<path class="st0" d="M209.91,68.73c-0.88,0-1.63-0.16-2.24-0.48c-0.62-0.32-1.14-0.75-1.58-1.29l1.17-1.1
			c0.37,0.45,0.78,0.79,1.22,1.02c0.45,0.23,0.95,0.34,1.52,0.34c0.67,0,1.17-0.15,1.52-0.45c0.34-0.3,0.51-0.71,0.51-1.21
			c0-0.41-0.12-0.74-0.36-0.97c-0.24-0.24-0.67-0.42-1.27-0.54l-0.93-0.17c-1.02-0.19-1.78-0.53-2.29-1
			c-0.51-0.48-0.76-1.14-0.76-1.98c0-0.46,0.09-0.88,0.26-1.25c0.17-0.38,0.42-0.69,0.73-0.95c0.32-0.25,0.7-0.45,1.15-0.59
			c0.45-0.14,0.96-0.21,1.52-0.21c0.79,0,1.47,0.14,2.05,0.41c0.58,0.27,1.08,0.67,1.49,1.19l-1.19,1.05
			c-0.27-0.35-0.6-0.63-0.99-0.84c-0.39-0.21-0.88-0.32-1.46-0.32c-0.6,0-1.07,0.12-1.4,0.36c-0.33,0.24-0.5,0.59-0.5,1.05
			c0,0.44,0.14,0.77,0.41,0.98c0.27,0.21,0.69,0.38,1.26,0.49l0.93,0.2c1.05,0.2,1.82,0.54,2.3,1.02c0.49,0.48,0.73,1.14,0.73,1.98
			c0,0.49-0.09,0.94-0.25,1.33c-0.17,0.4-0.42,0.74-0.74,1.03c-0.33,0.29-0.72,0.5-1.19,0.66
			C211.04,68.66,210.51,68.73,209.91,68.73z"/>
		<path class="st0" d="M219.37,59.58v8.97h-1.69v-8.97h-3.12v-1.5h7.93v1.5H219.37z"/>
		<path class="st0" d="M223.6,68.55v-1.38h1.42v-7.71h-1.42v-1.38h4.56v1.38h-1.44v7.71h1.44v1.38H223.6z"/>
		<path class="st0" d="M234.22,68.73c-1.37,0-2.44-0.46-3.22-1.39c-0.78-0.92-1.17-2.27-1.17-4.03c0-0.88,0.1-1.66,0.3-2.33
			c0.2-0.67,0.49-1.23,0.87-1.69c0.38-0.46,0.84-0.81,1.39-1.04c0.54-0.23,1.16-0.35,1.84-0.35c0.91,0,1.67,0.2,2.29,0.59
			c0.61,0.4,1.1,0.98,1.45,1.76l-1.42,0.78c-0.18-0.5-0.46-0.9-0.83-1.19c-0.38-0.29-0.87-0.44-1.48-0.44
			c-0.81,0-1.45,0.28-1.9,0.83c-0.46,0.55-0.69,1.32-0.69,2.29v1.6c0,0.97,0.23,1.74,0.69,2.29c0.46,0.55,1.09,0.83,1.9,0.83
			c0.63,0,1.14-0.16,1.54-0.49c0.39-0.33,0.69-0.74,0.88-1.25l1.37,0.83c-0.35,0.76-0.84,1.35-1.47,1.78
			C235.91,68.52,235.13,68.73,234.22,68.73z"/>
		<path class="st0" d="M246.48,68.73c-0.88,0-1.63-0.16-2.24-0.48c-0.62-0.32-1.14-0.75-1.58-1.29l1.17-1.1
			c0.37,0.45,0.78,0.79,1.22,1.02c0.45,0.23,0.95,0.34,1.52,0.34c0.67,0,1.17-0.15,1.52-0.45c0.34-0.3,0.51-0.71,0.51-1.21
			c0-0.41-0.12-0.74-0.36-0.97c-0.24-0.24-0.67-0.42-1.27-0.54l-0.93-0.17c-1.02-0.19-1.78-0.53-2.29-1
			c-0.51-0.48-0.76-1.14-0.76-1.98c0-0.46,0.09-0.88,0.26-1.25c0.17-0.38,0.42-0.69,0.73-0.95c0.32-0.25,0.7-0.45,1.15-0.59
			c0.45-0.14,0.96-0.21,1.52-0.21c0.79,0,1.47,0.14,2.05,0.41c0.58,0.27,1.08,0.67,1.49,1.19l-1.19,1.05
			c-0.27-0.35-0.6-0.63-0.99-0.84c-0.39-0.21-0.88-0.32-1.46-0.32c-0.6,0-1.07,0.12-1.4,0.36c-0.33,0.24-0.5,0.59-0.5,1.05
			c0,0.44,0.14,0.77,0.41,0.98c0.27,0.21,0.69,0.38,1.26,0.49l0.93,0.2c1.05,0.2,1.82,0.54,2.3,1.02c0.49,0.48,0.73,1.14,0.73,1.98
			c0,0.49-0.08,0.94-0.25,1.33c-0.17,0.4-0.42,0.74-0.74,1.03c-0.33,0.29-0.72,0.5-1.19,0.66
			C247.61,68.66,247.08,68.73,246.48,68.73z"/>
		<path class="st0" d="M253.92,58.08v6.46c0,0.89,0.17,1.56,0.51,2.01c0.34,0.45,0.92,0.68,1.74,0.68c0.82,0,1.4-0.23,1.74-0.68
			c0.34-0.45,0.51-1.12,0.51-2.01v-6.46h1.67v6.18c0,0.77-0.07,1.43-0.21,2c-0.14,0.56-0.37,1.02-0.67,1.39
			c-0.31,0.37-0.71,0.64-1.21,0.82c-0.5,0.18-1.1,0.27-1.82,0.27c-0.72,0-1.33-0.09-1.82-0.27c-0.5-0.18-0.9-0.45-1.21-0.82
			c-0.31-0.36-0.54-0.83-0.67-1.39c-0.14-0.56-0.21-1.23-0.21-2v-6.18H253.92z"/>
		<path class="st0" d="M264.3,68.55h-1.7V58.08h4.51c0.94,0,1.68,0.28,2.22,0.85c0.54,0.57,0.81,1.33,0.81,2.3
			c0,0.75-0.17,1.37-0.52,1.87c-0.34,0.5-0.85,0.84-1.52,1.04l2.26,4.41h-1.89l-2.1-4.23h-2.08V68.55z M267,62.9
			c0.43,0,0.77-0.11,1.01-0.34c0.24-0.22,0.36-0.54,0.36-0.96v-0.72c0-0.42-0.12-0.74-0.36-0.96c-0.24-0.22-0.58-0.34-1.01-0.34
			h-2.7v3.32H267z"/>
		<path class="st0" d="M279.01,66.98h-0.06c-0.11,0.51-0.41,0.92-0.89,1.26c-0.49,0.33-1.13,0.5-1.93,0.5
			c-0.62,0-1.19-0.12-1.72-0.35c-0.53-0.23-0.99-0.58-1.37-1.04c-0.39-0.46-0.69-1.02-0.9-1.69c-0.21-0.68-0.32-1.45-0.32-2.33
			c0-0.87,0.11-1.64,0.33-2.32c0.22-0.67,0.53-1.24,0.93-1.7c0.4-0.46,0.88-0.81,1.44-1.04c0.56-0.23,1.18-0.35,1.88-0.35
			c0.94,0,1.73,0.21,2.38,0.62c0.65,0.41,1.16,0.99,1.51,1.73l-1.38,0.81c-0.2-0.49-0.51-0.89-0.93-1.2
			c-0.42-0.31-0.95-0.46-1.59-0.46c-0.83,0-1.5,0.27-2,0.8c-0.5,0.53-0.76,1.29-0.76,2.26v1.72c0,0.97,0.25,1.73,0.76,2.26
			c0.5,0.53,1.17,0.8,2,0.8c0.33,0,0.64-0.04,0.94-0.13c0.3-0.09,0.56-0.21,0.79-0.38c0.22-0.17,0.4-0.37,0.54-0.62
			c0.13-0.25,0.2-0.54,0.2-0.87v-0.81h-2.16v-1.46h3.79v5.58h-1.48V66.98z"/>
		<path class="st0" d="M282.85,68.55V58.08h6.71v1.5h-5.01v2.91h4.54v1.5h-4.54v3.06h5.01v1.5H282.85z"/>
		<path class="st0" d="M293.44,68.55h-1.7V58.08h4.51c0.94,0,1.68,0.28,2.22,0.85c0.54,0.57,0.81,1.33,0.81,2.3
			c0,0.75-0.17,1.37-0.52,1.87c-0.34,0.5-0.85,0.84-1.52,1.04l2.26,4.41h-1.89l-2.1-4.23h-2.08V68.55z M296.14,62.9
			c0.43,0,0.77-0.11,1.01-0.34c0.24-0.22,0.36-0.54,0.36-0.96v-0.72c0-0.42-0.12-0.74-0.36-0.96c-0.24-0.22-0.58-0.34-1.01-0.34
			h-2.7v3.32H296.14z"/>
		<path class="st0" d="M303.48,68.55v-4.12l-3.6-6.35h1.93l2.55,4.67h0.04l2.54-4.67h1.86l-3.63,6.32v4.16H303.48z"/>
	</g>
</g>
</svg>
